- 
http://www.Speed.Cd      fast  and The Hottest Private Tracker on the net

   signup is open now

Please Seed back to make the speed Faster!!!

------------------nfo--------------------------
-








































          
          
              
              
                    
                    
                    
                    

Michael.Jackson.The.Life.Of.An.Icon.2011.BRRip.XviD.AC3-SiC

Poster:
[img]http://img842.imageshack.us/img842/4609/michaeljacksonlifeofani.jpg[/img]

IMDB Link:
N/A

Description:
The documentary focuses on stories from the stars closest friends and family relaying public and private memories and stories from the entertainers life including never-before-seen family photos and performance footage. The film also looks at the difficult times during Michaels life including the moment an arrest warrant was ordered and how the molestation trial impacted all their lives in 2005.

MediaInfo:
General
Complete name                    : Michael.Jackson.The.Life.Of.An.Icon.2011.BRRip.XviD.AC3-SiC.avi
Format                           : AVI
Format/Info                      : Audio Video Interleave
File size                        : 1.37 GiB
Duration                         : 2h 35mn
Overall bit rate                 : 1 258 Kbps

Video
ID                               : 0
Format                           : MPEG-4 Visual
Format profile                   : Advanced Simple@L5
Format settings, BVOP            : Yes
Format settings, QPel            : No
Format settings, GMC             : No warppoints
Format settings, Matrix          : Default (MPEG)
Muxing mode                      : Packed bitstream
Codec ID                         : XVID
Codec ID/Hint                    : XviD
Duration                         : 2h 35mn
Bit rate                         : 866 Kbps
Width                            : 720 pixels
Height                           : 384 pixels
Display aspect ratio             : 1.875
Frame rate                       : 23.976 fps
Color space                      : YUV
Chroma subsampling               : 4:2:0
Bit depth                        : 8 bits
Scan type                        : Progressive
Bits/(Pixel*Frame)               : 0.131
Stream size                      : 963 MiB (69%)
Writing library                  : XviD 64

Audio
ID                               : 1
Format                           : AC-3
Format/Info                      : Audio Coding 3
Mode extension                   : CM (complete main)
Codec ID                         : 2000
Duration                         : 2h 35mn
Bit rate mode                    : Constant
Bit rate                         : 384 Kbps
Channel(s)                       : 6 channels
Channel positions                : Front: L C R, Side: L R, LFE
Sampling rate                    : 48.0 KHz
Bit depth                        : 16 bits
Stream size                      : 427 MiB (31%)
Alignment                        : Aligned on interleaves
Interleave, duration             : 64 ms (1.53 video frames)
Interleave, preload duration     : 192 ms
Title                            : abd-tloai720p - [2] English


Screenshots:
[img]http://img269.imageshack.us/img269/7663/snap1y.png[/img]
[img]http://img708.imageshack.us/img708/4370/snap2l.png[/img]
[img]http://img577.imageshack.us/img577/7733/snap3i.png[/img]
[img]http://img846.imageshack.us/img846/245/snap4w.png[/img]
[img]http://img20.imageshack.us/img20/2656/snap5q.png[/img]


Note : did my thing and it turned out nice... 

Source: 720p aBD thnx

Enjoy!

Respects to CaptainHomey, Cyanide, CM8, Rx, THC, ELEKTRI4KA, 
Killerhz, PA, YeFsTe, Box, MrRep and everyone in the struggle...